<svg width="35" height="35" viewBox="0 0 35 35" fill="none" xmlns="http://www.w3.org/2000/svg">
<path d="M15.532 16.1503C15.8136 15.9464 15.9496 15.6098 15.9496 15.147C15.9593 14.9269 15.914 14.71 15.8169 14.5126C15.7295 14.354 15.6 14.2213 15.4414 14.1275C15.277 14.0277 15.0943 13.9617 14.9041 13.9333C14.697 13.8944 14.4866 13.875 14.2795 13.8782H12.0041V16.4578H14.4672C14.8912 16.461 15.2504 16.3575 15.532 16.1503V16.1503ZM15.914 18.4807C15.5968 18.2379 15.1728 18.1182 14.6452 18.1182H11.9977V21.1606H14.5934C14.8362 21.1606 15.0595 21.1379 15.2763 21.0926C15.4815 21.0525 15.6771 20.9734 15.8525 20.8596C16.0175 20.7528 16.1502 20.6071 16.2506 20.4194C16.3477 20.2317 16.3962 19.9922 16.3962 19.7041C16.3962 19.1312 16.2344 18.7267 15.914 18.4807V18.4807ZM18.5 3C10.4926 3 4 9.49263 4 17.5C4 25.5074 10.4926 32 18.5 32C26.5074 32 33 25.5074 33 17.5C33 9.49263 26.5074 3 18.5 3ZM21.2997 12.2858H25.7791V13.3766H21.2997V12.2858ZM18.5 21.2804C18.2905 21.6781 17.9913 22.0216 17.6261 22.2837C17.2442 22.5491 16.8202 22.7433 16.3703 22.8566C15.8996 22.9827 15.4141 23.0448 14.9268 23.0411H9.56696V12.001H14.7779C15.3055 12.001 15.7845 12.0496 16.2214 12.1402C16.6551 12.2308 17.0241 12.3862 17.3348 12.5965C17.6423 12.8069 17.885 13.0885 18.0566 13.4381C18.2249 13.7844 18.3123 14.2181 18.3123 14.7327C18.3123 15.2894 18.186 15.749 17.9336 16.1212C17.6779 16.4934 17.3089 16.7944 16.8073 17.0307C17.4902 17.2249 17.9919 17.5712 18.322 18.0567C18.6586 18.5487 18.8237 19.1377 18.8237 19.8304C18.8237 20.3935 18.7169 20.8758 18.5 21.2804ZM27.5237 19.5714H21.7496C21.7496 20.1993 21.9664 20.8013 22.2933 21.125C22.6234 21.4454 23.096 21.6073 23.7142 21.6073C24.1608 21.6073 24.5395 21.494 24.8632 21.2706C25.1836 21.0473 25.3778 20.811 25.449 20.5651H27.3845C27.0738 21.5263 26.6012 22.2125 25.9604 22.6268C25.326 23.0411 24.5492 23.2482 23.6462 23.2482C23.0151 23.2482 22.4487 23.1446 21.9405 22.9472C21.4518 22.7562 21.0116 22.465 20.6491 22.0895C20.2917 21.7039 20.0154 21.2505 19.8367 20.756C19.6393 20.209 19.5422 19.6329 19.5487 19.0536C19.5487 18.4548 19.649 17.8981 19.8432 17.3802C20.2154 16.3737 20.989 15.5677 21.9761 15.1502C22.5037 14.9301 23.0701 14.8201 23.643 14.8266C24.3227 14.8266 24.9117 14.956 25.4231 15.2214C25.9154 15.4749 26.3429 15.8381 26.6724 16.283C26.9993 16.7265 27.2291 17.2314 27.3748 17.801C27.514 18.3609 27.5625 18.95 27.5237 19.5714V19.5714ZM23.575 16.4772C23.2254 16.4772 22.9309 16.5387 22.7044 16.6585C22.4778 16.7782 22.2901 16.9271 22.1477 17.0987C22.012 17.2643 21.9118 17.456 21.8531 17.6618C21.8013 17.8334 21.7657 18.0081 21.7528 18.1862H25.3292C25.2775 17.6262 25.0833 17.2119 24.8243 16.9206C24.5525 16.6326 24.1155 16.4772 23.575 16.4772V16.4772Z" fill="#A6A6A6"/>
</svg>
