<svg width="35" height="35" viewBox="0 0 35 35" fill="none" xmlns="http://www.w3.org/2000/svg">
<path fill-rule="evenodd" clip-rule="evenodd" d="M17.5 3C9.48875 3 3 9.65287 3 17.8668C3 24.4453 7.15062 30.0018 12.9144 31.9716C13.6394 32.1017 13.9112 31.6557 13.9112 31.2654C13.9112 30.9123 13.8931 29.7416 13.8931 28.4965C10.25 29.1841 9.3075 27.5859 9.0175 26.7496C8.85437 26.3222 8.1475 25.0028 7.53125 24.6497C7.02375 24.371 6.29875 23.6834 7.51312 23.6648C8.655 23.6462 9.47062 24.7426 9.7425 25.1886C11.0475 27.4372 13.1319 26.8054 13.9656 26.4151C14.0925 25.4488 14.4731 24.7984 14.89 24.4267C11.6637 24.055 8.2925 22.7728 8.2925 17.0863C8.2925 15.4695 8.85437 14.1315 9.77875 13.0908C9.63375 12.7191 9.12625 11.1953 9.92375 9.15112C9.92375 9.15112 11.1381 8.76087 13.9112 10.675C15.0712 10.3405 16.3037 10.1732 17.5362 10.1732C18.7687 10.1732 20.0012 10.3405 21.1612 10.675C23.9344 8.74229 25.1487 9.15112 25.1487 9.15112C25.9462 11.1953 25.4387 12.7191 25.2937 13.0908C26.2181 14.1315 26.78 15.4509 26.78 17.0863C26.78 22.7914 23.3906 24.055 20.1644 24.4267C20.69 24.8913 21.1431 25.7833 21.1431 27.1771C21.1431 29.1655 21.125 30.7637 21.125 31.2654C21.125 31.6557 21.3969 32.1203 22.1219 31.9716C25.0004 30.9753 27.5017 29.0785 29.2737 26.5482C31.0457 24.018 31.9992 20.9817 32 17.8668C32 9.65287 25.5112 3 17.5 3Z" fill="#A6A6A6"/>
</svg>
