<svg width="53" height="53" viewBox="0 0 53 53" fill="none" xmlns="http://www.w3.org/2000/svg">
<g clip-path="url(#clip0_56_289)">
<path d="M13.1087 10.366C12.3667 10.366 11.618 10.5382 10.8716 10.8562C10.1208 11.1764 9.37879 11.6203 8.64783 12.1923C7.87208 12.7988 7.15491 13.4768 6.50575 14.2173C5.81454 14.9991 5.15867 15.8625 4.54696 16.7878C3.93746 17.7153 3.36992 18.7024 2.82446 19.7028H2.82225V19.705C2.29446 20.7496 1.83292 21.825 1.431 22.9181C1.0335 24.0135 0.7155 25.111 0.46375 26.224C0.220833 27.3282 0.0706667 28.4036 0.0220833 29.4592C0.0087712 29.5254 0.00138089 29.5927 0 29.6602L0 29.87C0 30.4463 0.0839167 31.0404 0.165625 31.5836V31.5881L0.167833 31.5925C0.318 32.171 0.554292 32.7055 0.852417 33.1758C1.15812 33.6403 1.56317 34.031 2.03829 34.3198C2.5175 34.6245 3.08504 34.7769 3.75196 34.7769C4.33275 34.7769 4.93563 34.6444 5.55617 34.3683C6.17229 34.0923 6.78621 33.7323 7.39792 33.3105C7.98975 32.8865 8.58158 32.4007 9.15133 31.8531C9.60846 31.429 10.0258 30.9874 10.4388 30.5501L10.006 31.8928C9.81825 32.5398 9.60846 33.1648 9.43842 33.7765C9.25071 34.3816 9.10275 34.9248 8.97688 35.4063C8.851 35.8833 8.76488 36.2057 8.76488 36.4133V36.8881C8.76488 37.4203 8.82008 37.7957 8.99454 38.032C9.08131 38.1427 9.19339 38.2309 9.32135 38.2894C9.44931 38.3478 9.58943 38.3746 9.72992 38.3676C9.94285 38.3645 10.1487 38.2907 10.3151 38.1578C10.494 38.0253 10.6464 37.8553 10.7988 37.6632V37.6588L10.8032 37.6565C10.929 37.4644 11.0571 37.2591 11.1653 37.0426C11.2758 36.8196 11.3376 36.623 11.4016 36.4486V36.4464L11.5496 35.9164L11.8654 34.8233L12.285 33.3613C12.4528 32.8159 12.5985 32.2682 12.7863 31.7117L13.2831 30.0555C13.4421 29.5166 13.5923 29.0286 13.7314 28.5958C13.8705 28.1541 13.9876 27.7963 14.0848 27.5071C14.1289 27.3635 14.1731 27.2509 14.204 27.167L14.2349 27.0963L14.3233 27.1361L14.363 27.0301C14.5308 26.5486 14.6965 26.0871 14.8643 25.6476C15.0321 25.206 15.2 24.7643 15.328 24.3293C15.6552 23.4154 15.8196 22.4512 15.8139 21.4805C15.8162 21.2872 15.7786 21.0955 15.7035 20.9174C15.6471 20.764 15.5529 20.6272 15.4296 20.5199C15.3178 20.421 15.1871 20.3459 15.0454 20.2991C14.9098 20.2553 14.7682 20.233 14.6258 20.2328C14.3252 20.2373 14.0334 20.3353 13.791 20.5133C13.5062 20.7032 13.2942 21.019 13.1352 21.4452V21.4474L11.9206 25.3429C11.7167 25.738 11.4827 26.1167 11.2205 26.4758V26.478C10.1479 27.9889 8.87784 29.3495 7.44429 30.5236C7.03434 30.8656 6.59034 31.1646 6.11929 31.4158C5.78367 31.6132 5.40422 31.724 5.01513 31.7382C4.76585 31.7458 4.52188 31.6653 4.32613 31.5108C4.12335 31.3532 3.96755 31.1432 3.87563 30.9035C3.76467 30.6293 3.68898 30.3421 3.65038 30.0488C3.60912 29.7399 3.58846 29.4286 3.58854 29.1169C3.58854 28.2049 3.73429 27.1868 4.02579 26.0385C4.31729 24.8902 4.71479 23.7418 5.21608 22.5516C5.71737 21.3591 6.30258 20.2107 6.95183 19.0823C7.59888 17.9538 8.28788 16.9512 8.99675 16.0745C9.70342 15.2 10.4101 14.5154 11.1388 13.9766C11.861 13.4378 12.508 13.1772 13.1308 13.1772C13.5204 13.1714 13.9028 13.283 14.2283 13.4974C14.564 13.7138 14.8687 14.0782 15.1558 14.5927V14.5905C15.4517 15.1625 15.7498 15.6063 16.006 15.9288C16.271 16.26 16.578 16.4301 16.907 16.4301C17.0856 16.4318 17.262 16.3911 17.4217 16.3112C17.5815 16.2313 17.7199 16.1146 17.8257 15.9707C18.0796 15.666 18.2011 15.2486 18.2011 14.7429C18.2011 14.5309 18.179 14.3012 18.1348 14.0649C18.0847 13.8001 17.9793 13.5488 17.8257 13.3273C17.1322 12.2894 16.388 11.5452 15.5953 11.066H15.5908C14.8403 10.6145 13.9823 10.3728 13.1065 10.366H13.1087ZM37.3142 12.2541C36.994 12.2589 36.6811 12.3505 36.4088 12.5191H36.4066L36.4044 12.5213C36.0742 12.754 35.8279 13.087 35.7021 13.4709L31.5306 23.9781L30.6097 26.2858C30.2718 27.125 29.9583 27.9642 29.6226 28.821C29.4686 29.2184 29.3389 29.6247 29.2339 30.0378C29.0501 30.2024 28.8608 30.3607 28.6664 30.5126C28.2093 30.8659 27.7764 31.1331 27.3657 31.3186H27.3613C27.0472 31.4917 26.6971 31.5893 26.3388 31.6035C26.1577 31.6035 26.0363 31.5593 25.959 31.4865C25.8817 31.4136 25.8353 31.301 25.8353 31.1199C25.8353 30.7113 25.8971 30.2586 26.0208 29.7618C26.1467 29.2759 26.3123 28.7658 26.5 28.2535C26.68 27.7372 26.8819 27.2288 27.1051 26.7297L27.7146 25.3076C27.9045 24.8659 28.0525 24.464 28.1783 24.1283C28.2905 23.8639 28.3569 23.5824 28.3749 23.2958C28.3796 22.948 28.2685 22.6085 28.0591 22.3307C27.9593 22.1973 27.8291 22.0896 27.6793 22.0166C27.5295 21.9436 27.3644 21.9075 27.1978 21.9111C27.0375 21.9074 26.8786 21.9412 26.7336 22.0099C26.5887 22.0785 26.4618 22.1801 26.3631 22.3064C26.1269 22.583 25.9374 22.8963 25.8022 23.2339C25.6254 23.6178 25.4771 24.0142 25.3583 24.4198C25.2346 24.8394 25.069 25.2325 24.9012 25.6013C24.6516 26.1533 24.3579 26.7584 23.9825 27.4253C23.6153 28.0814 23.1981 28.7082 22.7348 29.3002C22.2777 29.8744 21.7808 30.358 21.2442 30.7445C20.7675 31.1069 20.1867 31.306 19.5879 31.312C19.4046 31.312 19.2832 31.2458 19.2191 31.1177C19.1403 30.9641 19.1008 30.7934 19.1043 30.6208C19.1264 30.1703 19.2059 29.6955 19.3516 29.2008C19.4974 28.7106 19.663 28.2225 19.8507 27.7433C20.0384 27.2796 20.2482 26.807 20.4757 26.3631C20.7075 25.9193 20.9173 25.4997 21.1249 25.1265V25.1243L21.6726 24.0863C21.791 23.8517 21.8907 23.608 21.9707 23.3576L21.9729 23.3532V23.351C21.995 23.2626 22.0193 23.1522 22.0193 23.0308C22.0225 22.8654 21.9813 22.7022 21.9 22.5582V22.556L21.8978 22.5538C21.8161 22.421 21.7085 22.306 21.5814 22.2157C21.4543 22.1254 21.3103 22.0617 21.158 22.0282C20.9392 21.9596 20.7071 21.9444 20.4811 21.984C20.2552 22.0236 20.0421 22.1167 19.8595 22.2556C19.568 22.4566 19.3494 22.768 19.1551 23.1964C18.5164 24.5083 17.9343 25.8471 17.4105 27.2089C16.9909 28.3241 16.6972 29.2273 16.4874 29.923C16.3279 30.4282 16.2075 30.945 16.1275 31.4688V31.471L16.0833 31.9811V31.9855C16.0833 32.4581 16.1473 32.8689 16.282 33.2001V33.2046C16.4322 33.5292 16.6089 33.792 16.8319 33.9929C17.0609 34.1929 17.3329 34.3373 17.6269 34.4147C17.9184 34.503 18.2232 34.545 18.5323 34.545C19.2191 34.545 19.8529 34.4169 20.4337 34.2027C21.0145 33.9885 21.5401 33.6904 22.0105 33.3282C22.4703 32.9742 22.8875 32.5681 23.2538 32.118C23.5188 31.8089 23.7175 31.4887 23.9163 31.1751C23.8279 31.6609 23.744 32.1401 23.744 32.531C23.744 33.2598 23.8831 33.7898 24.1901 34.1144C24.3388 34.2696 24.5184 34.3919 24.7174 34.4734C24.9163 34.5548 25.1302 34.5935 25.345 34.587C25.8044 34.587 26.3145 34.4611 26.8776 34.2115C27.4363 33.962 28.0039 33.633 28.578 33.2266C28.7216 33.1273 28.8585 33.0213 28.9976 32.9153L29.0087 32.9948C29.0686 33.2712 29.181 33.5336 29.3399 33.7677H29.3421L29.3443 33.7721C29.521 33.9907 29.7198 34.1696 29.987 34.3021C30.2979 34.4459 30.6383 34.5147 30.9807 34.5031C31.5803 34.4935 32.1716 34.3621 32.7187 34.1166H32.7231C33.3149 33.8406 33.909 33.5005 34.5008 33.0566C35.129 32.5802 35.7278 32.0662 36.294 31.5174L36.316 31.4975C36.2145 31.7316 36.1173 31.9657 36.0113 32.202C35.5277 33.2708 35.0352 34.3485 34.5229 35.4504C34.0083 36.5546 33.4938 37.6455 33.0124 38.7364L33.0102 38.743L33.008 38.7475C32.9392 38.9549 32.8626 39.1597 32.7783 39.3614C32.6988 39.5645 32.5906 39.7766 32.5243 40.0195V40.0217C32.4426 40.2425 32.3587 40.4589 32.3145 40.6974C32.2483 40.9403 32.2262 41.1766 32.2262 41.393C32.2262 41.8524 32.3565 42.2035 32.606 42.3802C32.8648 42.5556 33.1725 42.6445 33.485 42.6341C33.7544 42.6341 34.0017 42.5679 34.2248 42.4575V42.4553H34.227C34.4484 42.3299 34.6452 42.1653 34.8078 41.9694C34.9756 41.7707 35.1169 41.5454 35.245 41.2893C35.3719 41.0265 35.4854 40.7575 35.5851 40.4832L35.5895 40.4744V40.4655C35.6072 40.3838 35.6712 40.1983 35.775 39.9267L36.1328 38.9639L36.5523 37.8332L36.9918 36.6805L37.3672 35.7198C37.4732 35.446 37.5373 35.2561 37.577 35.1567V35.1545C37.619 35.0706 37.683 34.9447 37.7647 34.7371L38.0584 34.0459L38.414 33.2288L38.7938 32.3897L39.1074 31.6344L39.3348 31.1353L39.337 31.1331C39.5247 30.7577 39.7522 30.3425 40.004 29.8832V29.881C40.2756 29.4239 40.5671 28.9866 40.8785 28.5295V28.5273C41.2141 28.0856 41.5454 27.6506 41.9009 27.2354C42.2565 26.8225 42.6297 26.4691 43.0051 26.1357C43.3871 25.8265 43.7692 25.5571 44.1556 25.3738C44.4966 25.1967 44.8735 25.1 45.2576 25.0911C45.4475 25.0911 45.5734 25.1309 45.6507 25.1773C45.6814 25.2064 45.7056 25.2418 45.7216 25.281C45.7376 25.3202 45.745 25.3624 45.7434 25.4047C45.7434 25.5814 45.6485 25.8618 45.4254 26.1843V26.1865C45.1958 26.5398 44.9263 26.9152 44.5929 27.3326C44.2351 27.7522 43.8796 28.1916 43.4821 28.651C43.0846 29.1147 42.7048 29.5763 42.347 30.0378C42.0177 30.4634 41.7139 30.908 41.4372 31.3694V31.3716C41.2139 31.7298 41.0603 32.1269 40.9845 32.5421V32.5575C40.9825 32.5739 40.9795 32.5901 40.9756 32.6061C40.969 32.6282 40.9624 32.637 40.9624 32.6834V32.8093C40.9624 33.3768 41.1655 33.8361 41.5675 34.1475C41.9716 34.4832 42.5413 34.6333 43.2458 34.6333C44.0165 34.6333 44.7254 34.4832 45.3879 34.1828C46.046 33.8869 46.7239 33.485 47.4195 32.955H47.4218C48.1174 32.4338 48.8351 31.8133 49.6102 31.0934C50.3633 30.3757 51.2422 29.5807 52.2249 28.7084C52.4827 28.5046 52.6822 28.2365 52.8035 27.931C52.9338 27.6263 53 27.3238 53 27.0256C53.0046 26.7752 52.9421 26.5282 52.8189 26.3101C52.7663 26.2107 52.6874 26.1277 52.5909 26.07C52.4943 26.0124 52.3837 25.9824 52.2713 25.9833C52.1448 25.9864 52.0208 26.0189 51.9091 26.0783C51.792 26.1357 51.6684 26.2108 51.5337 26.3013C51.304 26.3742 51.5712 26.4404 51.5999 26.5398C50.4118 27.602 49.3828 28.4986 48.5679 29.2031C47.7287 29.9362 47.0243 30.5016 46.4788 30.9432C46.0747 31.2701 45.6514 31.5724 45.2112 31.8486C44.9197 32.0231 44.6967 32.107 44.573 32.107C44.4007 32.107 44.2815 32.0628 44.2285 32.0121C44.1967 31.9812 44.1719 31.9441 44.1555 31.903C44.1391 31.8619 44.1317 31.8178 44.1335 31.7736C44.1486 31.7139 44.1748 31.6577 44.2108 31.6079C44.2899 31.4908 44.3762 31.3787 44.4692 31.2723L45.3481 30.2454C45.7059 29.8457 46.0636 29.404 46.4611 28.9204C46.8586 28.4346 47.234 27.9333 47.5697 27.4143C47.923 26.9064 48.1991 26.383 48.431 25.8685C48.654 25.3539 48.7755 24.8637 48.7755 24.3977C48.7825 24.0689 48.7017 23.7441 48.5414 23.457C48.3897 23.1931 48.1806 22.9667 47.9297 22.7945C47.6868 22.6178 47.4041 22.4853 47.1015 22.3948H47.0993C46.3359 22.1814 45.5223 22.2383 44.796 22.556C44.3299 22.7503 43.8869 22.9962 43.4755 23.2891C43.0389 23.5936 42.6221 23.9255 42.2278 24.2829C41.9405 24.5535 41.6607 24.8319 41.3886 25.1176L41.4681 24.729C41.5012 24.5678 41.5233 24.4176 41.5432 24.2718V24.2696C41.5653 24.1195 41.5719 24.0135 41.5719 23.9406C41.5886 23.6404 41.4889 23.3454 41.2936 23.1169V23.1147H41.2892C41.0971 22.9159 40.799 22.8298 40.4059 22.8298C40.1365 22.8298 39.8759 22.9844 39.655 23.2494C39.4271 23.5341 39.2323 23.8438 39.0743 24.1725C38.9039 24.5163 38.7549 24.8703 38.6282 25.2325L38.3345 26.0672V26.0694C38.2329 26.4206 38.1203 26.7783 38.0032 27.1405C37.9724 27.1488 37.9421 27.1591 37.9127 27.1714C37.7977 27.2108 37.6945 27.2784 37.6123 27.3679L37.619 27.3613C37.3584 27.6131 37.0647 27.9068 36.7378 28.2203C36.4132 28.5339 36.0687 28.8475 35.7132 29.1611C35.3554 29.4548 34.9933 29.7684 34.6311 30.0599C34.2733 30.347 33.9244 30.6009 33.591 30.8218C33.2597 31.0448 32.9505 31.2193 32.6657 31.354C32.4543 31.4656 32.2218 31.5318 31.9833 31.5483C31.8508 31.5483 31.7956 31.5174 31.7625 31.4556H31.7603C31.7076 31.3495 31.6832 31.2315 31.6896 31.1133C31.6896 30.8637 31.7338 30.5766 31.8309 30.252C31.9237 29.9296 32.0208 29.6469 32.118 29.4018L32.1798 29.3356L33.0058 27.2332C33.3193 26.4272 33.655 25.5858 34.0326 24.6892L35.1655 21.92C35.5409 20.977 35.9208 20.065 36.2763 19.1949L37.3253 16.7613C37.6388 16.0193 37.9127 15.3943 38.1423 14.8886L38.1401 14.8931C38.2704 14.6347 38.3543 14.3918 38.4383 14.1864V14.182C38.5141 13.9714 38.5551 13.7499 38.5597 13.5261C38.5597 13.0933 38.425 12.7532 38.1622 12.5478C37.9223 12.3542 37.6224 12.2504 37.3142 12.2541Z" fill="white"/>
</g>
<defs>
<clipPath id="clip0_56_289">
<rect width="53" height="53" fill="white"/>
</clipPath>
</defs>
</svg>
