<svg width="35" height="35" viewBox="0 0 35 35" fill="none" xmlns="http://www.w3.org/2000/svg">
<path fill-rule="evenodd" clip-rule="evenodd" d="M17.5 4C13.8334 4 13.3744 4.0153 11.9344 4.081C10.4971 4.1467 9.5152 4.3753 8.6566 4.7092C7.7566 5.0476 6.9403 5.5786 6.2653 6.2662C5.5788 6.94042 5.04747 7.75615 4.7083 8.6566C4.3762 9.5152 4.1467 10.498 4.081 11.9353C4.0162 13.3744 4 13.8325 4 17.5C4 21.1675 4.0153 21.6256 4.081 23.0656C4.1467 24.5029 4.3753 25.4848 4.7092 26.3434C5.0476 27.2434 5.5786 28.0597 6.2662 28.7347C6.94044 29.4212 7.75616 29.9525 8.6566 30.2917C9.5152 30.6247 10.4971 30.8533 11.9344 30.919C13.3744 30.9847 13.8334 31 17.5 31C21.1666 31 21.6256 30.9847 23.0656 30.919C24.5029 30.8533 25.4848 30.6247 26.3434 30.2908C27.2434 29.9524 28.0597 29.4214 28.7347 28.7338C29.4212 28.0596 29.9525 27.2439 30.2917 26.3434C30.6247 25.4848 30.8533 24.5029 30.919 23.0656C30.9847 21.6256 31 21.1666 31 17.5C31 13.8334 30.9847 13.3744 30.919 11.9344C30.8533 10.4971 30.6247 9.5152 30.2908 8.6566C29.9519 7.75576 29.4205 6.93969 28.7338 6.2653C28.0596 5.5788 27.2439 5.04747 26.3434 4.7083C25.4848 4.3762 24.502 4.1467 23.0647 4.081C21.6256 4.0162 21.1675 4 17.5 4ZM17.5 6.4327C21.1045 6.4327 21.532 6.4462 22.9558 6.511C24.2716 6.5713 24.9862 6.79 25.4623 6.9763C26.0923 7.2202 26.5423 7.5136 27.0148 7.9852C27.4873 8.4577 27.7798 8.9077 28.0237 9.5377C28.2091 10.0138 28.4287 10.7284 28.489 12.0442C28.5538 13.468 28.5673 13.8955 28.5673 17.5C28.5673 21.1045 28.5538 21.532 28.489 22.9558C28.4287 24.2716 28.21 24.9862 28.0237 25.4623C27.8076 26.0487 27.4629 26.5792 27.0148 27.0148C26.5793 27.463 26.0487 27.8078 25.4623 28.0237C24.9862 28.2091 24.2716 28.4287 22.9558 28.489C21.532 28.5538 21.1054 28.5673 17.5 28.5673C13.8946 28.5673 13.468 28.5538 12.0442 28.489C10.7284 28.4287 10.0138 28.21 9.5377 28.0237C8.95131 27.8076 8.42081 27.4629 7.9852 27.0148C7.53716 26.5792 7.19242 26.0487 6.9763 25.4623C6.7909 24.9862 6.5713 24.2716 6.511 22.9558C6.4462 21.532 6.4327 21.1045 6.4327 17.5C6.4327 13.8955 6.4462 13.468 6.511 12.0442C6.5713 10.7284 6.79 10.0138 6.9763 9.5377C7.2202 8.9077 7.5136 8.4577 7.9852 7.9852C8.42075 7.53704 8.95127 7.19228 9.5377 6.9763C10.0138 6.7909 10.7284 6.5713 12.0442 6.511C13.468 6.4462 13.8955 6.4327 17.5 6.4327V6.4327Z" fill="#A6A6A6"/>
<path fill-rule="evenodd" clip-rule="evenodd" d="M17.5 21.8794C16.9249 21.8794 16.3554 21.7662 15.8241 21.5461C15.2927 21.326 14.8099 21.0034 14.4033 20.5967C13.9966 20.1901 13.674 19.7073 13.454 19.176C13.2339 18.6446 13.1206 18.0752 13.1206 17.5001C13.1206 16.925 13.2339 16.3555 13.454 15.8241C13.674 15.2928 13.9966 14.81 14.4033 14.4034C14.8099 13.9967 15.2927 13.6741 15.8241 13.454C16.3554 13.234 16.9249 13.1207 17.5 13.1207C18.6615 13.1207 19.7754 13.5821 20.5967 14.4034C21.4179 15.2247 21.8793 16.3386 21.8793 17.5001C21.8793 18.6615 21.4179 19.7755 20.5967 20.5967C19.7754 21.418 18.6615 21.8794 17.5 21.8794V21.8794ZM17.5 10.7538C15.7108 10.7538 13.9948 11.4646 12.7297 12.7297C11.4645 13.9949 10.7537 15.7108 10.7537 17.5001C10.7537 19.2893 11.4645 21.0052 12.7297 22.2704C13.9948 23.5355 15.7108 24.2463 17.5 24.2463C19.2892 24.2463 21.0051 23.5355 22.2703 22.2704C23.5355 21.0052 24.2462 19.2893 24.2462 17.5001C24.2462 15.7108 23.5355 13.9949 22.2703 12.7297C21.0051 11.4646 19.2892 10.7538 17.5 10.7538V10.7538ZM26.2088 10.6313C26.2088 11.0542 26.0408 11.4599 25.7418 11.7589C25.4427 12.058 25.0371 12.226 24.6142 12.226C24.1912 12.226 23.7856 12.058 23.4865 11.7589C23.1875 11.4599 23.0195 11.0542 23.0195 10.6313C23.0195 10.2084 23.1875 9.80276 23.4865 9.50369C23.7856 9.20463 24.1912 9.03662 24.6142 9.03662C25.0371 9.03662 25.4427 9.20463 25.7418 9.50369C26.0408 9.80276 26.2088 10.2084 26.2088 10.6313" fill="#A6A6A6"/>
</svg>
