<svg width="35" height="35" viewBox="0 0 35 35" fill="none" xmlns="http://www.w3.org/2000/svg">
<path d="M18 3C10.2679 3 4 9.26792 4 17C4 24.7321 10.2679 31 18 31C25.7321 31 32 24.7321 32 17C32 9.26792 25.7321 3 18 3ZM14.5729 22.8027H11.7379V13.6794H14.5729V22.8027ZM13.1379 12.5594C12.2425 12.5594 11.6635 11.925 11.6635 11.1404C11.6635 10.3398 12.26 9.72438 13.1744 9.72438C14.0887 9.72438 14.6488 10.3398 14.6663 11.1404C14.6663 11.925 14.0887 12.5594 13.1379 12.5594ZM24.9271 22.8027H22.0921V17.7467C22.0921 16.5698 21.6808 15.7706 20.6556 15.7706C19.8725 15.7706 19.4073 16.3117 19.2017 16.8323C19.1258 17.0175 19.1069 17.28 19.1069 17.541V22.8013H16.2704V16.5888C16.2704 15.4498 16.234 14.4975 16.196 13.6779H18.6592L18.789 14.9452H18.8458C19.2192 14.3502 20.1335 13.4723 21.6633 13.4723C23.5285 13.4723 24.9271 14.7221 24.9271 17.4083V22.8027Z" fill="#A6A6A6"/>
</svg>
