<svg width="55" height="36" viewBox="0 0 55 36" fill="none" xmlns="http://www.w3.org/2000/svg">
<path d="M3.41969 35.411C2.67333 35.411 2.02196 35.3668 1.46558 35.2783C0.895633 35.2026 0.407106 35.0952 0 34.9562V31.148C0.434246 31.2491 0.902418 31.3375 1.40451 31.4133C1.90661 31.489 2.44263 31.5269 3.01258 31.5269C3.75894 31.5269 4.43745 31.3943 5.04811 31.1291C5.65877 30.8638 6.14051 30.3838 6.49334 29.6891C6.85973 28.9944 7.04293 28.0155 7.04293 26.7524V0H11.9282V26.6008C11.9282 28.6597 11.5754 30.3333 10.8697 31.6217C10.1641 32.9227 9.17345 33.8763 7.89785 34.4826C6.62225 35.1015 5.12953 35.411 3.41969 35.411Z" fill="white"/>
<path d="M43.7842 13.5846C43.7842 16.7045 43.16 19.3128 41.9115 21.4095C40.6631 23.4936 38.8515 25.0662 36.4767 26.1272C34.1019 27.1756 31.2386 27.6997 27.8867 27.6997H19.6225V0H28.7824C31.8628 0 34.5226 0.51787 36.7617 1.55361C39.0007 2.57672 40.7309 4.09875 41.9523 6.11971C43.1736 8.12804 43.7842 10.6163 43.7842 13.5846ZM38.6954 13.7172C38.6954 11.4437 38.3087 9.57429 37.5352 8.10909C36.7752 6.6439 35.6489 5.55763 34.1562 4.8503C32.677 4.13033 30.8518 3.77035 28.6806 3.77035H24.5078V23.8915H27.9682C31.5643 23.8915 34.2512 23.0389 36.0289 21.3337C37.8066 19.6285 38.6954 17.0897 38.6954 13.7172Z" fill="white"/>
<line x1="18.0822" y1="33.9109" x2="55" y2="33.9109" stroke="white" stroke-width="3"/>
<circle cx="51.9864" cy="24.8631" r="3.0137" fill="white"/>
</svg>
