<svg width="35" height="35" viewBox="0 0 35 35" fill="none" xmlns="http://www.w3.org/2000/svg">
<path fill-rule="evenodd" clip-rule="evenodd" d="M32.0833 17.5001C32.0833 25.5542 25.5542 32.0834 17.5 32.0834C9.44585 32.0834 2.91667 25.5542 2.91667 17.5001C2.91667 9.44593 9.44585 2.91675 17.5 2.91675C25.5542 2.91675 32.0833 9.44593 32.0833 17.5001ZM18.0226 13.6828C16.6041 14.2728 13.7692 15.4939 9.5179 17.3462C8.82755 17.6207 8.46591 17.8893 8.43299 18.1519C8.37735 18.5957 8.93313 18.7704 9.68996 19.0084C9.7929 19.0408 9.89957 19.0743 10.0089 19.1099C10.7535 19.3519 11.7551 19.6351 12.2758 19.6463C12.7482 19.6565 13.2753 19.4618 13.8573 19.0621C17.8295 16.3808 19.8799 15.0256 20.0087 14.9963C20.0995 14.9757 20.2254 14.9498 20.3106 15.0256C20.3959 15.1014 20.3875 15.2449 20.3785 15.2834C20.3234 15.5182 18.1418 17.5464 17.0128 18.596C16.6608 18.9232 16.4112 19.1553 16.3601 19.2083C16.2458 19.3271 16.1293 19.4394 16.0173 19.5474C15.3256 20.2142 14.8068 20.7143 16.046 21.5309C16.6415 21.9234 17.1181 22.2479 17.5935 22.5716C18.1127 22.9252 18.6305 23.2779 19.3005 23.7171C19.4712 23.829 19.6343 23.9452 19.7931 24.0584C20.3973 24.4891 20.9401 24.8761 21.6108 24.8144C22.0004 24.7786 22.403 24.4121 22.6074 23.3193C23.0905 20.7366 24.0401 15.1406 24.2596 12.8346C24.2788 12.6326 24.2547 12.374 24.2352 12.2605C24.2158 12.147 24.1752 11.9853 24.0277 11.8656C23.8529 11.7238 23.5832 11.6939 23.4626 11.696C22.9141 11.7057 22.0725 11.9983 18.0226 13.6828Z" fill="white"/>
</svg>
